<?xml version="1.0" encoding="UTF-8"?>
<!-- Generated by Pixelmator Pro 3.6.4 -->
<svg width="432" height="432" viewBox="0 0 432 432" xmlns="http://www.w3.org/2000/svg">
    <clipPath id="clipPath1">
        <path d="M -477.09375 0.192688 L -45.09375 0.192688 L -45.09375 430.192688 L -477.09375 430.192688 Z M -477.09375 0.192688"/>
    </clipPath>
    <g id="g1" clip-path="url(#clipPath1)"/>
    <clipPath id="clipPath2">
        <path d="M -0.140625 0.192688 L 431.859375 0.192688 L 431.859375 432.192688 L -0.140625 432.192688 Z M -0.140625 0.192688"/>
    </clipPath>
    <g id="g2" clip-path="url(#clipPath2)">
        <path id="path1" fill="#e6035f" stroke="none" d="M 431.859375 366.536438 C 431.859375 402.744812 402.411438 432.192688 366.203125 432.192688 L 65.510437 432.192688 C 29.302063 432.192688 -0.140625 402.744812 -0.140625 366.536438 L -0.140625 65.84375 C -0.140625 29.635437 29.302063 0.192688 65.510437 0.192688 L 366.203125 0.192688 C 402.411438 0.192688 431.859375 29.635437 431.859375 65.84375 Z M 431.859375 366.536438"/>
    </g>
    <path id="path2" fill="#ffffff" stroke="none" d="M 368.984375 219.609375 C 368.984375 243.494812 368.984375 268.8125 363.651062 291.947937 C 359.895813 308.244812 346.598938 320.192688 330.526062 321.994812 C 292.588562 326.197937 254.130188 326.276062 215.895813 326.197937 C 177.583313 326.197937 139.276062 326.197937 101.265625 321.994812 C 85.265625 320.192688 71.895813 308.244812 68.140625 291.947937 C 62.807312 268.8125 62.807312 243.494812 62.807312 219.609375 C 62.807312 195.723938 62.880188 170.40625 68.140625 147.270813 C 71.895813 130.96875 85.192688 119.026062 101.265625 117.223938 C 139.276062 112.942688 177.661438 112.942688 215.895813 112.942688 C 254.130188 112.942688 292.515625 112.942688 330.526062 117.223938 C 346.526062 119.026062 359.895813 130.96875 363.651062 147.270813 C 368.984375 170.40625 368.984375 195.723938 368.984375 219.609375 Z M 368.984375 219.609375"/>
    <path id="path3" fill="#e6035f" stroke="none" d="M 183.671875 162.671875 L 183.671875 277.072937 L 272.53125 219.833313 Z M 183.671875 162.671875"/>
    <clipPath id="clipPath3">
        <path d="M -481.822914 504.92186 L -36.822945 504.92186 L -36.822945 949.666672 L -481.822914 949.666672 Z M -481.822914 504.92186"/>
    </clipPath>
    <g id="g3" clip-path="url(#clipPath3)"/>
</svg>
